<?xml version="1.0" encoding="UTF-8" standalone="no"?>
<!DOCTYPE svg PUBLIC "-//W3C//DTD SVG 20010904//EN"
              "http://www.w3.org/TR/2001/REC-SVG-20010904/DTD/svg10.dtd">

<svg xmlns="http://www.w3.org/2000/svg"
     width="135.45mm" height="135.45mm"
     viewBox="0 0 512 512">
  <path id="Selection"
        fill="none" stroke="black" stroke-width="1"
        d="M 318.00,236.00
           C 322.44,239.88 324.67,244.78 327.24,250.00
             339.98,275.84 334.66,302.40 314.96,323.00
             309.12,329.11 303.60,334.27 297.00,339.55
             290.39,344.84 283.64,349.68 280.56,358.00
             277.90,365.20 279.90,368.03 279.30,371.99
             278.45,377.60 273.20,380.09 268.00,378.44
             262.58,376.71 257.52,369.82 253.00,366.40
             250.88,364.79 248.75,363.54 246.00,364.22
             242.87,364.99 239.26,368.77 237.00,371.00
             237.00,371.00 229.23,379.00 229.23,379.00
             224.99,384.26 226.92,387.46 231.10,391.99
             235.13,396.35 239.83,399.30 245.00,402.12
             249.20,404.40 253.11,405.58 253.85,411.00
             255.65,424.15 232.03,423.86 224.10,429.70
             224.10,429.70 208.05,449.99 208.05,449.99
             193.36,466.15 172.56,479.73 150.00,480.00
             130.72,480.22 124.54,479.91 106.00,473.31
             100.40,471.32 96.28,469.41 91.00,466.75
             88.76,465.62 84.36,462.98 82.00,462.99
             74.67,463.02 58.29,481.26 48.00,477.15
             45.38,476.10 43.02,473.88 41.00,471.96
             39.30,470.34 35.74,466.80 34.43,465.00
             27.49,455.46 38.80,443.24 43.80,435.00
             45.22,432.65 47.92,428.75 47.86,426.00
             47.80,423.58 42.71,414.12 41.45,411.00
             38.29,403.16 35.63,393.37 34.43,385.00
             30.35,356.66 38.42,332.19 59.00,312.01
             67.55,303.64 82.05,294.59 83.73,292.79
             86.84,289.45 90.68,276.87 92.33,272.00
             93.93,267.29 95.35,262.92 101.00,262.15
             111.94,260.65 109.20,271.56 122.01,283.96
             124.61,286.47 128.05,289.76 132.00,288.78
             135.70,287.87 141.25,281.78 144.00,279.00
             146.68,276.28 152.40,271.26 151.27,267.00
             149.46,260.18 134.74,253.83 136.24,244.00
             137.62,234.99 146.03,237.78 152.17,237.04
             156.17,236.55 160.73,234.70 164.00,232.36
             170.16,227.97 179.24,215.28 185.09,209.00
             199.48,193.56 216.45,182.97 238.00,183.00
             247.64,183.01 255.11,185.00 264.00,188.60
             267.01,189.82 274.41,194.23 277.00,193.56
             279.62,192.89 283.92,188.02 286.00,186.04
             286.00,186.04 304.00,169.42 304.00,169.42
             304.00,169.42 316.00,158.17 316.00,158.17
             316.00,158.17 357.00,120.09 357.00,120.09
             360.82,116.53 377.23,102.11 379.07,98.99
             380.37,96.77 381.17,92.66 382.08,90.00
             382.08,90.00 384.50,83.00 384.50,83.00
             385.75,75.46 374.14,71.41 372.66,64.00
             371.48,58.07 377.26,53.06 383.00,54.45
             386.88,55.38 390.21,59.30 393.00,61.99
             394.65,63.59 396.76,65.82 399.00,66.51
             402.47,67.59 408.93,65.03 407.67,59.00
             406.20,52.01 394.26,47.42 395.27,39.00
             395.73,35.19 398.22,32.67 402.00,32.15
             411.20,30.88 414.11,40.86 421.00,43.40
             423.38,44.28 430.15,44.00 433.00,44.00
             433.00,44.00 457.00,44.00 457.00,44.00
             460.62,44.01 464.78,43.64 467.57,46.43
             469.96,48.82 469.95,51.86 470.00,55.00
             470.00,55.00 470.00,87.00 470.00,87.00
             470.22,98.52 478.71,97.61 479.85,106.00
             480.74,112.54 475.41,117.67 469.00,115.40
             465.02,113.99 452.25,97.85 447.75,110.93
             444.97,119.04 464.49,125.52 455.49,135.72
             448.05,144.16 438.61,131.61 435.00,130.19
             431.89,128.98 417.86,132.62 415.00,134.56
             411.28,137.09 407.24,142.57 403.96,146.00
             403.96,146.00 383.91,167.00 383.91,167.00
             383.91,167.00 351.04,201.00 351.04,201.00
             351.04,201.00 318.00,236.00 318.00,236.00 Z
           M 453.00,61.00
           C 453.00,61.00 425.00,61.00 425.00,61.00
             425.00,65.88 425.81,71.91 422.57,75.89
             417.91,81.62 407.29,81.99 403.48,85.08
             401.51,86.68 400.33,90.62 399.36,93.00
             397.83,97.01 396.54,99.13 399.36,103.00
             399.36,103.00 405.00,108.99 405.00,108.99
             407.68,111.60 411.08,115.16 415.00,115.55
             415.00,115.55 429.00,113.00 429.00,113.00
             430.50,106.44 433.81,93.37 440.02,90.17
             443.16,88.55 449.36,89.00 453.00,89.00
             453.00,89.00 453.00,61.00 453.00,61.00 Z
           M 201.00,290.00
           C 201.00,290.00 215.00,304.00 215.00,304.00
             216.67,305.63 219.51,308.80 222.00,308.80
             224.96,308.80 229.91,303.09 232.00,301.00
             232.00,301.00 255.00,277.00 255.00,277.00
             255.00,277.00 266.04,265.00 266.04,265.00
             266.04,265.00 319.96,209.00 319.96,209.00
             319.96,209.00 350.01,177.00 350.01,177.00
             350.01,177.00 369.04,157.00 369.04,157.00
             369.04,157.00 387.28,138.00 387.28,138.00
             390.12,134.78 398.45,128.59 396.26,124.00
             395.80,123.05 394.66,121.79 393.94,121.02
             392.54,119.54 390.17,117.21 388.00,117.20
             384.81,117.18 376.44,125.60 374.00,128.00
             374.00,128.00 320.00,178.09 320.00,178.09
             320.00,178.09 272.00,222.96 272.00,222.96
             272.00,222.96 250.00,243.09 250.00,243.09
             250.00,243.09 228.00,263.83 228.00,263.83
             221.33,269.87 205.64,283.51 201.00,290.00 Z
           M 263.00,207.00
           C 252.75,202.59 247.66,199.75 236.00,200.01
             217.48,200.44 202.81,214.70 191.59,228.00
             183.46,237.64 175.70,248.37 163.00,252.00
             165.94,256.82 169.66,262.09 169.66,268.00
             169.66,273.12 166.45,278.96 163.51,283.00
             156.40,292.78 142.41,307.99 129.00,306.66
             118.91,305.66 110.88,298.76 105.00,291.00
             101.64,295.69 101.50,300.81 97.73,304.67
             94.22,308.27 77.96,316.38 68.43,327.04
             64.59,331.33 61.09,335.95 58.31,341.00
             43.66,367.68 51.62,389.04 62.00,415.00
             67.97,413.10 72.93,409.01 78.00,405.42
             84.16,401.06 89.29,398.51 93.56,392.00
             93.56,392.00 103.80,375.00 103.80,375.00
             105.66,371.90 107.66,367.96 111.04,366.33
             115.68,364.09 118.74,367.09 122.00,370.00
             122.00,370.00 139.96,387.00 139.96,387.00
             142.76,389.99 145.88,393.55 144.79,398.00
             143.82,401.94 140.21,404.03 137.00,406.00
             137.00,406.00 118.01,417.24 118.01,417.24
             112.42,420.99 108.49,427.58 104.58,433.00
             100.85,438.16 96.50,443.11 94.00,449.00
             102.83,452.80 108.25,456.34 118.00,459.28
             141.63,466.40 165.38,464.61 185.00,448.54
             191.37,443.31 197.30,436.78 201.98,430.00
             204.45,426.41 209.24,417.94 212.18,415.70
             214.96,413.58 221.51,411.80 225.00,411.00
             218.23,402.31 208.09,396.11 209.19,383.00
             210.21,370.78 221.11,361.30 230.00,354.09
             235.22,349.86 241.00,345.83 248.00,345.74
             254.31,345.65 258.78,349.09 264.00,352.00
             267.18,345.29 269.06,341.68 274.29,336.09
             284.95,324.69 317.60,308.02 316.98,277.00
             316.89,272.28 315.70,267.45 314.14,263.00
             312.04,257.06 309.88,252.14 305.00,248.00
             300.11,254.83 292.89,260.78 287.09,267.00
             287.09,267.00 248.01,308.00 248.01,308.00
             248.01,308.00 233.00,324.00 233.00,324.00
             230.87,326.12 227.86,329.42 225.00,330.39
             220.11,332.03 216.18,328.07 213.00,324.98
             213.00,324.98 188.00,300.00 188.00,300.00
             185.00,297.00 179.61,292.72 180.49,288.00
             181.52,282.47 196.37,270.56 201.00,266.00
             201.00,266.00 245.00,225.04 245.00,225.04
             251.55,218.78 257.50,214.68 263.00,207.00 Z
           M 438.00,315.00
           C 441.09,310.69 452.36,298.48 457.00,296.74
             463.62,294.26 470.71,300.01 468.25,307.00
             466.97,310.63 460.86,316.13 458.00,319.00
             458.00,319.00 434.00,343.00 434.00,343.00
             434.00,343.00 365.00,412.00 365.00,412.00
             365.00,412.00 314.00,463.00 314.00,463.00
             310.37,466.63 300.04,477.91 296.00,479.40
             294.06,480.12 291.09,480.00 289.00,480.00
             289.00,480.00 252.00,480.00 252.00,480.00
             249.37,480.00 245.50,480.22 243.23,478.83
             238.55,475.97 239.69,468.76 242.43,465.00
             242.43,465.00 274.00,433.00 274.00,433.00
             274.00,433.00 405.00,302.00 405.00,302.00
             405.00,302.00 454.00,253.00 454.00,253.00
             458.85,248.15 467.15,237.33 474.95,241.32
             487.13,247.54 473.10,259.90 468.00,265.00
             468.00,265.00 439.00,294.00 439.00,294.00
             436.85,296.15 430.04,302.07 430.04,305.00
             430.04,307.85 435.97,312.97 438.00,315.00 Z
           M 425.00,327.00
           C 422.91,324.91 417.96,319.20 415.00,319.20
             412.04,319.20 407.09,324.91 405.00,327.00
             405.00,327.00 381.00,351.00 381.00,351.00
             381.00,351.00 307.00,425.00 307.00,425.00
             307.00,425.00 269.00,464.00 269.00,464.00
             269.00,464.00 283.00,464.00 283.00,464.00
             291.12,463.85 293.53,459.47 299.00,454.00
             299.00,454.00 323.00,430.00 323.00,430.00
             323.00,430.00 390.00,363.00 390.00,363.00
             390.00,363.00 425.00,327.00 425.00,327.00 Z
           M 117.00,388.00
           C 117.00,388.00 108.00,401.00 108.00,401.00
             113.85,401.55 117.96,397.70 123.00,395.00
             123.00,395.00 117.00,388.00 117.00,388.00 Z
           M 97.00,413.00
           C 97.00,413.00 72.00,430.00 72.00,430.00
             74.38,434.60 75.47,436.34 80.00,439.00
             80.00,439.00 97.00,413.00 97.00,413.00 Z
           M 60.00,444.00
           C 57.37,446.24 51.42,453.05 52.41,456.78
             52.78,458.16 53.58,458.49 54.00,459.00
             54.00,459.00 66.00,450.00 66.00,450.00
             66.00,450.00 60.00,444.00 60.00,444.00 Z" />
</svg>
